# xmcd CD database file
#
# Track frame offsets:
#	150
#	16892
#	40007
#	61497
#	86165
#	107840
#	129567
#	152885
#	173540
#	190572
#
# Disc length: 2804 seconds
#
# Revision: 0
# Processed by: cddbd v1.5.1PL2 Copyright (c) Steve Scherf et al.
# Submitted via: CDex 1.51
#
DISCID=770af20a
DTITLE=唐沢寿明 - 僕に出来ること
DYEAR=1995
DGENRE=J-Pop
TTITLE0=素直になれよ-Yes, my love
TTITLE1=たった一人で悲しまないで
TTITLE2=水平線の彼方に
TTITLE3=せつないキスは知っている
TTITLE4=僕に出来ること
TTITLE5=永遠の鼓動
TTITLE6=今も生きてる
TTITLE7=２人のすべて
TTITLE8=So Hip-そこんとこよろしく
TTITLE9=記念日
EXTD=YEAR: 1995
EXTT0=
EXTT1=
EXTT2=
EXTT3=
EXTT4=
EXTT5=
EXTT6=
EXTT7=
EXTT8=
EXTT9=
PLAYORDER=
